<svg width="24" height="24" viewBox="0 0 24 24" fill="none" xmlns="http://www.w3.org/2000/svg">
<path fill-rule="evenodd" clip-rule="evenodd" d="M10 18.7101C9.45933 18.5492 8.94604 18.3247 8.46879 18.0454L8.30733 18.2068C7.91681 18.5974 7.28364 18.5974 6.89312 18.2068L5.79317 17.1069C5.40265 16.7164 5.40265 16.0832 5.79317 15.6927L5.95464 15.5312C5.67526 15.054 5.45079 14.5407 5.28988 14H5C4.44772 14 4 13.5523 4 13V11C4 10.4477 4.44772 10 5 10H5.28988C5.45079 9.45933 5.67526 8.94604 5.95464 8.46879L5.79317 8.30733C5.40265 7.91681 5.40265 7.28364 5.79317 6.89312L6.89312 5.79317C7.28364 5.40265 7.91681 5.40265 8.30733 5.79317L8.46879 5.95464C8.94604 5.67526 9.45933 5.45079 10 5.28988V5C10 4.44772 10.4477 4 11 4H13C13.5523 4 14 4.44772 14 5V5.28988C14.5407 5.45079 15.054 5.67526 15.5312 5.95464L15.6927 5.79317C16.0832 5.40265 16.7164 5.40265 17.1069 5.79317L18.2068 6.89312C18.5974 7.28364 18.5974 7.91681 18.2068 8.30733L18.0454 8.46879C18.3247 8.94604 18.5492 9.45933 18.7101 10H19C19.5523 10 20 10.4477 20 11V13C20 13.5523 19.5523 14 19 14H18.7101C18.5492 14.5407 18.3247 15.054 18.0454 15.5312L18.2068 15.6927C18.5974 16.0832 18.5974 16.7164 18.2068 17.1069L17.1069 18.2068C16.7164 18.5974 16.0832 18.5974 15.6927 18.2068L15.5312 18.0454C15.054 18.3247 14.5407 18.5492 14 18.7101V19C14 19.5523 13.5523 20 13 20H11C10.4477 20 10 19.5523 10 19V18.7101V18.7101Z" stroke="#363837" stroke-linecap="round" stroke-linejoin="round"/>
<circle cx="12" cy="12" r="4" stroke="#363837"/>
</svg>
